<svg xmlns="http://www.w3.org/2000/svg" viewBox="228.8 98.8 386.2 802.4" width="386.2" height="802.4">
  <defs>
    <linearGradient id="bleedLeft" gradientUnits="userSpaceOnUse" x1="420" y1="0" x2="560" y2="0">
      <stop offset="0" stop-color="#ffffff" stop-opacity="0"/><stop offset="0.42" stop-color="#ffffff" stop-opacity="0.025"/><stop offset="0.66" stop-color="#ffffff" stop-opacity="0.08"/><stop offset="0.84" stop-color="#ffffff" stop-opacity="0.24"/><stop offset="0.94" stop-color="#ffffff" stop-opacity="0.58"/><stop offset="1" stop-color="#ffffff" stop-opacity="1"/>
    </linearGradient>
    <linearGradient id="railFade" gradientUnits="userSpaceOnUse" x1="290" y1="0" x2="560" y2="0">
      <stop offset="0" stop-color="#f5f4ef" stop-opacity="0"/><stop offset="0.45" stop-color="#f5f4ef" stop-opacity="0.1"/><stop offset="0.75" stop-color="#f5f4ef" stop-opacity="0.42"/><stop offset="1" stop-color="#f5f4ef" stop-opacity="1"/>
    </linearGradient>
  </defs>
  <g id="dot-field" fill="#f5f4ef">
    <g id="col-00"><circle cx="290" cy="160" r="6.2"/><circle cx="290" cy="192.38" r="6.2"/><circle cx="290" cy="224.76" r="6.2"/><circle cx="290" cy="257.14" r="6.2"/><circle cx="290" cy="289.52" r="6.2"/><circle cx="290" cy="321.9" r="6.2"/><circle cx="290" cy="354.29" r="6.2"/><circle cx="290" cy="386.67" r="6.2"/><circle cx="290" cy="419.05" r="6.2"/><circle cx="290" cy="451.43" r="6.2"/><circle cx="290" cy="483.81" r="6.2"/><circle cx="290" cy="516.19" r="6.2"/><circle cx="290" cy="548.57" r="6.2"/><circle cx="290" cy="580.95" r="6.2"/><circle cx="290" cy="613.33" r="6.2"/><circle cx="290" cy="645.71" r="6.2"/><circle cx="290" cy="678.1" r="6.2"/><circle cx="290" cy="710.48" r="6.2"/><circle cx="290" cy="742.86" r="6.2"/><circle cx="290" cy="775.24" r="6.2"/><circle cx="290" cy="807.62" r="6.2"/><circle cx="290" cy="840" r="6.2"/></g>
    <g id="col-01"><circle cx="330" cy="185.19" r="5.02"/><circle cx="330" cy="215.17" r="5.02"/><circle cx="330" cy="245.15" r="5.02"/><circle cx="330" cy="275.13" r="5.02"/><circle cx="330" cy="305.11" r="5.02"/><circle cx="330" cy="335.1" r="5.02"/><circle cx="330" cy="365.08" r="5.02"/><circle cx="330" cy="395.06" r="5.02"/><circle cx="330" cy="425.04" r="5.02"/><circle cx="330" cy="455.03" r="5.02"/><circle cx="330" cy="485.01" r="5.02"/><circle cx="330" cy="514.99" r="5.02"/><circle cx="330" cy="544.97" r="5.02"/><circle cx="330" cy="574.96" r="5.02"/><circle cx="330" cy="604.94" r="5.02"/><circle cx="330" cy="634.92" r="5.02"/><circle cx="330" cy="664.9" r="5.02"/><circle cx="330" cy="694.89" r="5.02"/><circle cx="330" cy="724.87" r="5.02"/><circle cx="330" cy="754.85" r="5.02"/><circle cx="330" cy="784.83" r="5.02"/><circle cx="330" cy="814.81" r="5.02"/></g>
    <g id="col-02"><circle cx="364.48" cy="206.9" r="4.12"/><circle cx="364.48" cy="234.81" r="4.12"/><circle cx="364.48" cy="262.73" r="4.12"/><circle cx="364.48" cy="290.64" r="4.12"/><circle cx="364.48" cy="318.56" r="4.12"/><circle cx="364.48" cy="346.47" r="4.12"/><circle cx="364.48" cy="374.38" r="4.12"/><circle cx="364.48" cy="402.3" r="4.12"/><circle cx="364.48" cy="430.21" r="4.12"/><circle cx="364.48" cy="458.13" r="4.12"/><circle cx="364.48" cy="486.04" r="4.12"/><circle cx="364.48" cy="513.96" r="4.12"/><circle cx="364.48" cy="541.87" r="4.12"/><circle cx="364.48" cy="569.79" r="4.12"/><circle cx="364.48" cy="597.7" r="4.12"/><circle cx="364.48" cy="625.62" r="4.12"/><circle cx="364.48" cy="653.53" r="4.12"/><circle cx="364.48" cy="681.44" r="4.12"/><circle cx="364.48" cy="709.36" r="4.12"/><circle cx="364.48" cy="737.27" r="4.12"/><circle cx="364.48" cy="765.19" r="4.12"/><circle cx="364.48" cy="793.1" r="4.12"/></g>
    <g id="col-03"><circle cx="394.52" cy="225.81" r="3.43"/><circle cx="394.52" cy="251.92" r="3.43"/><circle cx="394.52" cy="278.03" r="3.43"/><circle cx="394.52" cy="304.15" r="3.43"/><circle cx="394.52" cy="330.26" r="3.43"/><circle cx="394.52" cy="356.37" r="3.43"/><circle cx="394.52" cy="382.49" r="3.43"/><circle cx="394.52" cy="408.6" r="3.43"/><circle cx="394.52" cy="434.72" r="3.43"/><circle cx="394.52" cy="460.83" r="3.43"/><circle cx="394.52" cy="486.94" r="3.43"/><circle cx="394.52" cy="513.06" r="3.43"/><circle cx="394.52" cy="539.17" r="3.43"/><circle cx="394.52" cy="565.28" r="3.43"/><circle cx="394.52" cy="591.4" r="3.43"/><circle cx="394.52" cy="617.51" r="3.43"/><circle cx="394.52" cy="643.63" r="3.43"/><circle cx="394.52" cy="669.74" r="3.43"/><circle cx="394.52" cy="695.85" r="3.43"/><circle cx="394.52" cy="721.97" r="3.43"/><circle cx="394.52" cy="748.08" r="3.43"/><circle cx="394.52" cy="774.19" r="3.43"/></g>
    <g id="col-04"><circle cx="420.91" cy="242.42" r="2.89"/><circle cx="420.91" cy="266.96" r="2.89"/><circle cx="420.91" cy="291.49" r="2.89"/><circle cx="420.91" cy="316.02" r="2.89"/><circle cx="420.91" cy="340.55" r="2.89"/><circle cx="420.91" cy="365.08" r="2.89"/><circle cx="420.91" cy="389.61" r="2.89"/><circle cx="420.91" cy="414.14" r="2.89"/><circle cx="420.91" cy="438.67" r="2.89"/><circle cx="420.91" cy="463.2" r="2.89"/><circle cx="420.91" cy="487.73" r="2.89"/><circle cx="420.91" cy="512.27" r="2.89"/><circle cx="420.91" cy="536.8" r="2.89"/><circle cx="420.91" cy="561.33" r="2.89"/><circle cx="420.91" cy="585.86" r="2.89"/><circle cx="420.91" cy="610.39" r="2.89"/><circle cx="420.91" cy="634.92" r="2.89"/><circle cx="420.91" cy="659.45" r="2.89"/><circle cx="420.91" cy="683.98" r="2.89"/><circle cx="420.91" cy="708.51" r="2.89"/><circle cx="420.91" cy="733.04" r="2.89"/><circle cx="420.91" cy="757.58" r="2.89"/></g>
    <g id="col-05"><circle cx="444.29" cy="257.14" r="2.46"/><circle cx="444.29" cy="280.27" r="2.46"/><circle cx="444.29" cy="303.4" r="2.46"/><circle cx="444.29" cy="326.53" r="2.46"/><circle cx="444.29" cy="349.66" r="2.46"/><circle cx="444.29" cy="372.79" r="2.46"/><circle cx="444.29" cy="395.92" r="2.46"/><circle cx="444.29" cy="419.05" r="2.46"/><circle cx="444.29" cy="442.18" r="2.46"/><circle cx="444.29" cy="465.31" r="2.46"/><circle cx="444.29" cy="488.44" r="2.46"/><circle cx="444.29" cy="511.56" r="2.46"/><circle cx="444.29" cy="534.69" r="2.46"/><circle cx="444.29" cy="557.82" r="2.46"/><circle cx="444.29" cy="580.95" r="2.46"/><circle cx="444.29" cy="604.08" r="2.46"/><circle cx="444.29" cy="627.21" r="2.46"/><circle cx="444.29" cy="650.34" r="2.46"/><circle cx="444.29" cy="673.47" r="2.46"/><circle cx="444.29" cy="696.6" r="2.46"/><circle cx="444.29" cy="719.73" r="2.46"/><circle cx="444.29" cy="742.86" r="2.46"/></g>
    <g id="col-06"><circle cx="465.14" cy="270.27" r="2.11"/><circle cx="465.14" cy="292.15" r="2.11"/><circle cx="465.14" cy="314.03" r="2.11"/><circle cx="465.14" cy="335.91" r="2.11"/><circle cx="465.14" cy="357.79" r="2.11"/><circle cx="465.14" cy="379.67" r="2.11"/><circle cx="465.14" cy="401.54" r="2.11"/><circle cx="465.14" cy="423.42" r="2.11"/><circle cx="465.14" cy="445.3" r="2.11"/><circle cx="465.14" cy="467.18" r="2.11"/><circle cx="465.14" cy="489.06" r="2.11"/><circle cx="465.14" cy="510.94" r="2.11"/><circle cx="465.14" cy="532.82" r="2.11"/><circle cx="465.14" cy="554.7" r="2.11"/><circle cx="465.14" cy="576.58" r="2.11"/><circle cx="465.14" cy="598.46" r="2.11"/><circle cx="465.14" cy="620.33" r="2.11"/><circle cx="465.14" cy="642.21" r="2.11"/><circle cx="465.14" cy="664.09" r="2.11"/><circle cx="465.14" cy="685.97" r="2.11"/><circle cx="465.14" cy="707.85" r="2.11"/><circle cx="465.14" cy="729.73" r="2.11"/></g>
    <g id="col-07"><circle cx="483.85" cy="282.05" r="1.83"/><circle cx="483.85" cy="302.81" r="1.83"/><circle cx="483.85" cy="323.57" r="1.83"/><circle cx="483.85" cy="344.32" r="1.83"/><circle cx="483.85" cy="365.08" r="1.83"/><circle cx="483.85" cy="385.84" r="1.83"/><circle cx="483.85" cy="406.59" r="1.83"/><circle cx="483.85" cy="427.35" r="1.83"/><circle cx="483.85" cy="448.11" r="1.83"/><circle cx="483.85" cy="468.86" r="1.83"/><circle cx="483.85" cy="489.62" r="1.83"/><circle cx="483.85" cy="510.38" r="1.83"/><circle cx="483.85" cy="531.14" r="1.83"/><circle cx="483.85" cy="551.89" r="1.83"/><circle cx="483.85" cy="572.65" r="1.83"/><circle cx="483.85" cy="593.41" r="1.83"/><circle cx="483.85" cy="614.16" r="1.83"/><circle cx="483.85" cy="634.92" r="1.83"/><circle cx="483.85" cy="655.68" r="1.83"/><circle cx="483.85" cy="676.43" r="1.83"/><circle cx="483.85" cy="697.19" r="1.83"/><circle cx="483.85" cy="717.95" r="1.83"/></g>
    <g id="col-08"><circle cx="500.73" cy="292.68" r="1.59"/><circle cx="500.73" cy="312.43" r="1.59"/><circle cx="500.73" cy="332.17" r="1.59"/><circle cx="500.73" cy="351.92" r="1.59"/><circle cx="500.73" cy="371.66" r="1.59"/><circle cx="500.73" cy="391.41" r="1.59"/><circle cx="500.73" cy="411.15" r="1.59"/><circle cx="500.73" cy="430.89" r="1.59"/><circle cx="500.73" cy="450.64" r="1.59"/><circle cx="500.73" cy="470.38" r="1.59"/><circle cx="500.73" cy="490.13" r="1.59"/><circle cx="500.73" cy="509.87" r="1.59"/><circle cx="500.73" cy="529.62" r="1.59"/><circle cx="500.73" cy="549.36" r="1.59"/><circle cx="500.73" cy="569.11" r="1.59"/><circle cx="500.73" cy="588.85" r="1.59"/><circle cx="500.73" cy="608.59" r="1.59"/><circle cx="500.73" cy="628.34" r="1.59"/><circle cx="500.73" cy="648.08" r="1.59"/><circle cx="500.73" cy="667.83" r="1.59"/><circle cx="500.73" cy="687.57" r="1.59"/><circle cx="500.73" cy="707.32" r="1.59"/></g>
    <g id="col-09"><circle cx="516.05" cy="302.33" r="1.4"/><circle cx="516.05" cy="321.15" r="1.4"/><circle cx="516.05" cy="339.98" r="1.4"/><circle cx="516.05" cy="358.8" r="1.4"/><circle cx="516.05" cy="377.63" r="1.4"/><circle cx="516.05" cy="396.46" r="1.4"/><circle cx="516.05" cy="415.28" r="1.4"/><circle cx="516.05" cy="434.11" r="1.4"/><circle cx="516.05" cy="452.93" r="1.4"/><circle cx="516.05" cy="471.76" r="1.4"/><circle cx="516.05" cy="490.59" r="1.4"/><circle cx="516.05" cy="509.41" r="1.4"/><circle cx="516.05" cy="528.24" r="1.4"/><circle cx="516.05" cy="547.07" r="1.4"/><circle cx="516.05" cy="565.89" r="1.4"/><circle cx="516.05" cy="584.72" r="1.4"/><circle cx="516.05" cy="603.54" r="1.4"/><circle cx="516.05" cy="622.37" r="1.4"/><circle cx="516.05" cy="641.2" r="1.4"/><circle cx="516.05" cy="660.02" r="1.4"/><circle cx="516.05" cy="678.85" r="1.4"/><circle cx="516.05" cy="697.67" r="1.4"/></g>
    <g id="col-10"><circle cx="530" cy="311.11" r="1.23"/><circle cx="530" cy="329.1" r="1.23"/><circle cx="530" cy="347.09" r="1.23"/><circle cx="530" cy="365.08" r="1.23"/><circle cx="530" cy="383.07" r="1.23"/><circle cx="530" cy="401.06" r="1.23"/><circle cx="530" cy="419.05" r="1.23"/><circle cx="530" cy="437.04" r="1.23"/><circle cx="530" cy="455.03" r="1.23"/><circle cx="530" cy="473.02" r="1.23"/><circle cx="530" cy="491.01" r="1.23"/><circle cx="530" cy="508.99" r="1.23"/><circle cx="530" cy="526.98" r="1.23"/><circle cx="530" cy="544.97" r="1.23"/><circle cx="530" cy="562.96" r="1.23"/><circle cx="530" cy="580.95" r="1.23"/><circle cx="530" cy="598.94" r="1.23"/><circle cx="530" cy="616.93" r="1.23"/><circle cx="530" cy="634.92" r="1.23"/><circle cx="530" cy="652.91" r="1.23"/><circle cx="530" cy="670.9" r="1.23"/><circle cx="530" cy="688.89" r="1.23"/></g>
    <g id="col-11"><circle cx="542.77" cy="319.15" r="1.09"/><circle cx="542.77" cy="336.37" r="1.09"/><circle cx="542.77" cy="353.6" r="1.09"/><circle cx="542.77" cy="370.82" r="1.09"/><circle cx="542.77" cy="388.04" r="1.09"/><circle cx="542.77" cy="405.27" r="1.09"/><circle cx="542.77" cy="422.49" r="1.09"/><circle cx="542.77" cy="439.72" r="1.09"/><circle cx="542.77" cy="456.94" r="1.09"/><circle cx="542.77" cy="474.16" r="1.09"/><circle cx="542.77" cy="491.39" r="1.09"/><circle cx="542.77" cy="508.61" r="1.09"/><circle cx="542.77" cy="525.84" r="1.09"/><circle cx="542.77" cy="543.06" r="1.09"/><circle cx="542.77" cy="560.28" r="1.09"/><circle cx="542.77" cy="577.51" r="1.09"/><circle cx="542.77" cy="594.73" r="1.09"/><circle cx="542.77" cy="611.96" r="1.09"/><circle cx="542.77" cy="629.18" r="1.09"/><circle cx="542.77" cy="646.4" r="1.09"/><circle cx="542.77" cy="663.63" r="1.09"/><circle cx="542.77" cy="680.85" r="1.09"/></g>
  </g>
  <g id="perspective-rails">
    <path id="rail-top" d="M 560 327.8 L 560 332.2 L 290 160 Z" fill="url(#railFade)"/>
    <path id="rail-bottom" d="M 560 667.8 L 560 672.2 L 290 840 Z" fill="url(#railFade)"/>
  </g>
  <g id="bright-edge">
    <polygon id="edge-bleed" points="420,241.85 560,330 560,670 420,758.15" fill="url(#bleedLeft)"/>
    <rect id="edge-core" x="553.5" y="330" width="6.5" height="340" fill="#ffffff"/>
  </g>
</svg>